<svg width="881" height="359" viewBox="0 0 881 359" fill="none" xmlns="http://www.w3.org/2000/svg">
<path d="M321.583 49.9429V60.2969C304.791 41.242 269.726 43.6783 251.89 59.8618C215.433 91.5329 228.919 156.006 277.905 164.533C293.915 167.752 309.315 164.533 321.583 154.353V165.055H322.453H351.427V141.65V71.347V49.9429H321.583ZM291.304 138.256C269.378 138.256 261.199 120.681 261.199 106.15C261.199 86.4864 274.512 74.0442 291.304 74.0442H291.391C308.184 74.0442 321.496 87.0085 321.496 105.367C321.409 120.768 313.231 138.256 291.304 138.256ZM614.802 124.422C606.971 163.402 548.763 182.022 516.047 147.74C488.727 120.072 496.905 67.4316 533.623 52.4661C564.511 37.6747 604.361 51.7701 614.193 85.6164C614.454 86.4864 614.802 87.8786 615.15 89.0097C611.322 90.1408 589.57 96.5794 588.177 96.8404C586.698 91.794 580.869 73.7832 559.03 73.7832C539.366 73.7832 529.708 90.1408 529.708 106.498C529.708 124.422 542.933 138.605 557.463 138.605C573.473 138.605 582.174 131.383 588.003 116.156L614.802 124.422ZM223.612 77.7856C208.559 78.1336 195.073 80.3958 187.329 92.8381C185.415 96.0574 184.371 99.2767 184.371 103.453V164.968H154.527V86.9215C154.44 81.962 153.396 77.1765 151.395 72.7391L144.869 59.7748L170.015 46.8106L179.76 66.1264C188.199 57.0776 198.553 51.422 210.822 49.3338C214.041 48.8118 222.481 48.2027 223.525 48.2027L223.612 77.7856ZM610.626 225.178C595.573 225.526 582.087 227.788 574.343 240.23C572.429 243.45 571.385 246.669 571.385 250.845V312.36H541.541V234.314C541.454 229.354 540.41 224.569 538.409 220.131L531.883 207.167L557.028 194.203L566.773 213.519C575.213 204.47 585.567 198.814 597.835 196.726C601.055 196.204 609.494 195.595 610.539 195.595L610.626 225.178ZM484.463 164.968H454.184V100.669C454.184 81.962 443.047 75.2623 431.388 75.2623C419.555 75.2623 409.897 84.6593 409.897 94.3172V164.968H378.922V85.0943C378.661 80.8309 377.617 76.6545 375.877 72.7391L369.351 59.7748L394.496 46.8106L402.936 63.5162V63.4292C410.941 53.1622 425.036 48.0287 438.436 48.0287C463.668 48.0287 484.376 64.7343 484.376 96.7534L484.463 164.968ZM390.146 312.708H359.954V248.409C359.954 229.702 348.817 223.003 337.158 223.003C325.325 223.003 315.667 232.4 315.667 242.058V312.708H284.692V232.835C284.431 228.571 283.387 224.395 281.646 220.48L275.121 207.515L300.266 194.551L308.706 211.257V211.17C316.711 200.903 330.806 195.769 344.206 195.769C369.438 195.769 390.146 212.475 390.146 244.494V312.708ZM706.77 164.968V100.669C706.77 81.962 695.633 75.2623 683.974 75.2623C672.141 75.2623 662.483 84.6593 662.483 94.3172V164.968H661.265H631.421V0H661.265V57.6866C669.356 51.335 680.319 48.0287 690.934 48.0287C716.167 48.0287 736.875 64.7343 736.875 96.7534V164.881H706.77V164.968ZM80.0478 46.8106C62.1241 46.8106 49.6818 55.9465 44.5483 60.6449V0H14.6174V110.936C14.6174 124.77 9.39692 138.169 0 148.349L22.4482 165.664C28.1037 159.139 32.7152 151.917 36.2825 144.26C46.8106 157.05 60.7319 165.664 80.0478 165.664C104.671 165.664 134.515 146.261 134.515 106.15C134.428 70.9989 108.152 46.8106 80.0478 46.8106ZM76.2194 138.256C54.2933 138.256 46.1145 120.681 46.1145 105.367C46.1145 87.0955 59.4268 74.0442 76.2194 74.0442H76.3064C93.0991 74.0442 106.411 86.4864 106.411 106.15C106.237 120.681 98.0586 138.256 76.2194 138.256ZM880.352 195.508L825.362 316.189C817.184 334.2 803.001 348.73 785.513 357.17L781.945 358.91L769.155 332.024L772.722 330.371C783.076 325.325 791.777 316.798 797.172 306.096L747.055 195.595H780.205L812.485 272.772L847.637 195.595H880.352V195.508ZM631.334 342.639C643.341 350.557 656.827 354.734 671.531 355.169C688.063 355.517 704.334 352.471 718.255 340.377C732.089 327.5 736.527 306.444 736.875 285.736V195.508H709.38V209.777C695.285 190.027 662.57 190.027 643.602 202.469C625.504 213.432 618.63 232.052 618.63 252.934C618.63 272.598 632.552 298.265 659.785 304.443C692.762 311.838 707.292 293.045 707.292 293.045C707.466 315.406 694.937 329.762 673.968 329.762C662.483 329.762 651.868 324.542 644.82 320.017L631.334 342.639ZM677.709 280.428C661.787 280.428 648.909 269.03 648.909 249.975C648.909 230.834 662.831 219.261 677.361 219.261C699.287 219.261 706.944 238.664 706.944 250.584C706.944 264.767 697.199 280.428 677.709 280.428ZM260.938 225.178C250.149 198.205 220.218 189.243 193.768 195.769C147.044 207.341 134.95 269.9 171.755 299.657C186.372 311.925 208.298 315.406 227.005 310.794C242.232 306.879 254.935 296.525 262.331 282.343C256.066 278.166 247.887 272.772 241.797 268.595C237.011 276.165 231.53 282.517 223.873 285.388C214.65 289.303 199.597 288.172 192.115 281.82C185.415 276.252 181.413 268.421 180.543 259.894L265.376 259.807C266.333 244.668 265.028 235.532 260.938 225.178ZM182.37 237.62L182.631 237.011C186.807 226.222 197.509 218.478 209.168 217.695C225.439 216.651 233.705 227.44 235.793 237.098L235.88 237.62H182.37ZM514.916 225.178C504.127 198.205 474.196 189.243 447.746 195.769C401.022 207.341 388.928 269.9 425.733 299.657C440.35 311.925 462.276 315.406 480.983 310.794C496.209 306.879 508.913 296.525 516.308 282.343C510.044 278.166 501.865 272.772 495.774 268.595C490.989 276.165 485.507 282.517 477.851 285.388C468.628 289.303 453.575 288.172 446.093 281.82C439.393 276.252 435.39 268.421 434.52 259.894L519.354 259.807C520.311 244.668 519.093 235.532 514.916 225.178ZM436.348 237.62L436.609 237.011C440.785 226.222 451.487 218.478 463.146 217.695C479.417 216.651 487.683 227.44 489.771 237.098L489.858 237.62H436.348Z" fill="black"/>
</svg>